<svg xmlns="http://www.w3.org/2000/svg" width="660" height="623" viewBox="0 0 660 623" shape-rendering="geometricPrecision">
<g fill-rule="evenodd" stroke="none">
  <path d="M 553,79 553,82 555,85 558,87 564,87 564,85 557,78 Z" fill="#c6755c"/>
  <path d="M 410,65 407,65 396,72 397,80 399,80 410,67 Z" fill="#c6755c"/>
  <path d="M 392,85 388,85 380,88 379,92 374,96 373,99 370,102 368,109 365,114 364,121 360,127 358,135 359,138 364,138 376,114 389,92 392,89 Z" fill="#c6755c"/>
  <path d="M 368,290 362,293 354,293 338,300 333,308 329,308 320,315 311,316 309,312 307,312 295,354 298,353 309,336 323,321 340,308 367,295 Z" fill="#c6755c"/>
  <path d="M 533,65 524,62 502,62 488,66 476,72 462,83 448,99 447,103 451,104 461,95 473,89 475,85 479,82 510,80 532,68 Z" fill="#c6755c"/>
  <path d="M 468,497 468,499 474,505 490,517 506,526 529,534 547,536 561,535 574,532 588,525 588,520 585,517 580,516 567,508 558,508 540,515 523,517 495,510 471,497 Z" fill="#c6755c"/>
  <path d="M 371,360 369,360 350,380 341,396 335,412 341,427 358,455 360,455 360,452 352,440 358,425 363,416 377,404 378,400 386,401 386,398 376,378 Z" fill="#c6755c"/>
  <path d="M 457,320 454,320 435,330 407,341 409,346 420,358 439,373 443,374 452,373 453,367 455,366 456,363 463,357 468,349 476,342 476,337 473,333 463,326 Z" fill="#c6755c"/>
  <path d="M 230,216 228,216 220,232 200,249 176,259 151,263 151,265 158,265 161,268 159,283 149,296 131,307 120,310 120,312 157,313 180,308 202,284 215,265 227,237 Z" fill="#c6755c"/>
  <path d="M 375,93 364,94 357,98 357,101 352,111 351,118 342,133 342,135 335,141 335,143 345,141 348,138 353,138 358,134 359,127 364,117 365,111 367,109 369,102 372,99 373,96 375,95 Z" fill="#f2836a"/>
  <path d="M 374,263 371,261 362,262 359,264 354,265 348,272 342,275 338,275 331,278 321,280 317,284 315,294 310,306 311,315 320,314 329,307 333,307 335,302 338,299 340,299 354,292 362,292 368,288 374,269 Z" fill="#f2836a"/>
  <path d="M 378,401 378,404 364,416 353,440 360,450 368,469 385,491 404,511 412,516 418,517 426,511 430,492 438,483 441,483 440,476 427,469 420,462 415,446 389,405 382,401 Z" fill="#f2836a"/>
  <path d="M 36,187 33,196 37,251 62,286 91,304 111,310 131,306 152,292 159,280 160,268 158,266 125,262 95,252 87,242 79,210 61,202 49,185 41,183 Z" fill="#f2836a"/>
  <path d="M 178,357 140,397 112,447 92,436 81,470 80,500 93,541 119,571 153,588 192,592 236,578 272,548 302,498 315,453 303,432 283,469 264,459 231,515 210,537 175,538 156,531 137,499 137,470 153,427 192,373 190,364 Z" fill="#f2836a"/>
  <path d="M 359,139 356,138 348,139 345,142 338,143 329,147 328,150 332,150 351,144 354,142 359,141 Z" fill="#c89b7b"/>
  <path d="M 395,73 393,73 381,80 363,88 350,92 350,94 360,95 368,92 377,92 380,87 388,84 395,84 396,82 Z" fill="#c89b7b"/>
  <path d="M 573,447 573,455 576,466 575,480 570,493 560,505 560,507 567,507 580,515 585,516 589,520 589,522 593,522 607,509 614,499 621,484 623,471 616,464 610,463 604,458 593,455 584,448 Z" fill="#c89b7b"/>
  <path d="M 447,375 447,378 463,387 524,411 542,420 554,429 558,428 557,422 545,411 540,409 535,401 527,394 518,374 508,363 505,363 502,360 503,350 501,347 477,337 477,342 457,363 453,373 Z" fill="#c89b7b"/>
  <path d="M 477,84 477,86 499,85 517,93 528,106 532,116 534,153 558,162 565,162 575,172 583,173 587,153 583,120 567,88 555,86 552,82 553,75 540,67 534,67 510,81 Z" fill="#c89b7b"/>
  <path d="M 88,238 88,242 91,247 95,251 99,253 102,253 102,251 92,242 90,238 Z" fill="#f39f7d"/>
  <path d="M 222,522 218,523 214,527 203,533 203,535 210,536 214,534 222,524 Z" fill="#f39f7d"/>
  <path d="M 417,449 417,453 421,462 427,468 436,471 436,469 420,450 Z" fill="#f39f7d"/>
  <path d="M 355,95 345,95 343,97 341,97 336,103 332,114 324,121 316,134 308,142 305,147 305,151 310,153 317,153 332,145 332,143 341,135 341,133 350,118 351,111 356,101 356,96 Z" fill="#f39f7d"/>
  <path d="M 382,231 381,230 372,230 363,235 362,237 335,237 331,241 331,243 327,248 326,258 318,273 317,280 320,281 321,279 331,277 338,274 342,274 348,271 354,264 362,261 371,260 374,262 377,262 379,258 382,244 Z" fill="#f39f7d"/>
  <path d="M 442,477 442,483 438,484 431,492 427,511 420,517 414,518 414,520 432,535 452,548 488,562 499,563 508,560 508,555 513,548 513,545 508,539 500,535 499,530 495,526 496,521 476,508 444,477 Z" fill="#f39f7d"/>
  <path d="M 235,317 217,307 177,348 152,347 144,352 108,394 87,441 92,435 98,434 112,446 126,417 158,373 171,360 182,356 191,364 194,376 231,330 Z" fill="#f39f7d"/>
  <path d="M 444,302 434,300 416,313 379,322 327,360 309,346 323,332 323,326 319,326 290,369 258,462 268,458 283,468 291,460 300,434 308,432 316,453 310,482 336,405 351,377 383,346 425,333 424,319 444,310 Z" fill="#f39f7d"/>
  <path d="M 239,153 235,151 235,140 226,134 223,123 218,118 183,113 156,113 107,119 90,125 65,140 48,158 35,185 41,182 49,184 61,201 83,212 86,195 101,177 125,165 164,159 239,156 Z" fill="#f39f7d"/>
  <path d="M 421,305 400,312 400,314 416,312 421,307 Z" fill="#ecb68f"/>
  <path d="M 385,104 383,104 375,118 373,124 381,124 382,123 382,118 384,116 Z" fill="#ecb68f"/>
  <path d="M 617,499 615,499 607,510 607,513 610,515 616,514 618,510 Z" fill="#ecb68f"/>
  <path d="M 448,317 446,317 444,315 444,313 438,312 437,314 433,314 431,316 428,316 428,318 426,319 425,326 427,331 434,329 449,321 Z" fill="#ecb68f"/>
  <path d="M 391,314 384,313 369,297 364,297 339,310 323,323 324,332 320,336 315,337 310,343 310,346 322,358 327,359 350,339 375,323 391,316 Z" fill="#ecb68f"/>
  <path d="M 496,524 497,528 501,532 501,535 505,536 510,540 510,542 515,544 515,547 509,555 509,560 505,563 499,564 499,566 510,568 541,568 567,561 573,556 587,550 599,538 599,531 590,527 586,527 577,532 563,536 542,537 523,534 499,523 Z" fill="#ecb68f"/>
  <path d="M 253,275 238,262 220,257 197,292 145,346 143,351 152,346 177,347 203,323 211,311 217,306 222,307 225,312 233,314 237,318 235,324 237,326 255,293 256,281 Z" fill="#ecb68f"/>
  <path d="M 380,154 376,154 374,151 368,151 363,156 357,158 349,177 347,187 344,191 344,195 341,199 328,243 330,243 335,236 362,236 372,229 381,229 383,231 383,237 386,236 392,213 401,193 403,173 399,171 392,163 383,159 Z" fill="#ecb68f"/>
  <path d="M 505,350 503,360 508,362 519,374 526,391 538,406 558,422 558,432 570,447 574,445 584,447 591,453 616,463 624,470 625,450 617,426 603,424 592,417 576,396 563,387 551,369 Z" fill="#ecb68f"/>
  <path d="M 339,97 323,100 308,107 282,108 273,111 184,111 184,113 220,118 227,134 236,140 235,146 236,151 240,153 239,157 202,159 202,161 273,160 309,155 304,151 304,147 331,114 Z" fill="#ecb68f"/>
  <path d="M 583,175 575,173 565,163 532,154 526,175 513,200 516,210 530,215 527,225 516,240 482,272 438,297 445,302 445,311 453,312 456,318 488,300 522,273 562,225 579,191 Z" fill="#ecb68f"/>
  <path d="M 628,454 626,454 626,467 625,468 624,479 617,495 619,506 621,506 623,503 628,484 628,475 629,474 Z" fill="#f3d0a6"/>
  <path d="M 616,516 610,516 608,514 604,513 591,525 591,527 596,528 600,531 600,535 603,535 611,526 615,520 Z" fill="#f3d0a6"/>
  <path d="M 554,370 554,372 560,377 560,380 564,387 577,396 579,400 588,408 589,413 592,416 594,416 603,423 617,425 617,422 607,407 591,391 567,375 Z" fill="#f3d0a6"/>
  <path d="M 231,208 231,224 230,225 229,238 223,250 222,256 223,258 226,259 234,259 238,261 254,275 256,280 258,280 260,273 260,250 255,233 247,220 238,211 Z" fill="#f3d0a6"/>
  <path d="M 529,215 516,211 509,204 477,239 457,254 414,278 372,294 370,297 384,312 396,313 448,292 493,262 519,235 526,225 Z" fill="#f3d0a6"/>
  <path d="M 587,108 572,72 541,43 506,31 472,32 436,47 404,75 386,100 383,123 371,127 359,155 380,150 383,158 403,172 406,179 448,97 471,74 500,61 526,61 554,74 576,100 589,140 Z" fill="#f3d0a6"/>
</g>
</svg>
